<svg xmlns="http://www.w3.org/2000/svg" id="Capa_1" data-name="Capa 1" viewBox="0 0 305.78 315.16"><defs><style>.cls-1{isolation:isolate}.cls-5{font-size:72px;font-family:MyriadPro-Regular,Myriad Pro}</style></defs><g class="cls-1"><rect width="10" x="94.29" y="19.88"/><path d="M104.29 19.88v273.59h-10V19.88h10z"/></g><g class="cls-1"><rect width="10" x="202.63" y="19.88"/><path d="M212.63 19.88v273.59h-10V19.88h10z"/></g><g class="cls-1"><rect width="297.64" y="206.47"/><path d="M297.64 206.47v10H0v-10h297.64z"/></g><g class="cls-1"><rect width="297.64" y="96.88"/><path d="M297.64 96.88v10H0v-10h297.64z"/></g><path d="M45.87 22.98a33.35 33.35 0 1 1-33.35 33.35 33.38 33.38 0 0 1 33.35-33.35Zm0 56.69a23.35 23.35 0 1 0-23.35-23.34 23.35 23.35 0 0 0 23.35 23.34M153.45 123.32a33.35 33.35 0 1 1-33.34 33.35 33.39 33.39 0 0 1 33.34-33.35Zm0 56.69a23.35 23.35 0 1 0-23.34-23.34 23.37 23.37 0 0 0 23.34 23.34M259.62 223.74a33.35 33.35 0 1 1-33.35 33.34 33.37 33.37 0 0 1 33.35-33.34Zm0 56.69a23.35 23.35 0 1 0-23.35-23.35 23.37 23.37 0 0 0 23.35 23.35"/><g class="cls-1"><path d="m6.79 0 298.99 311L6.79 0z" style="fill:#a10000"/><path d="M2.46 4.16 6.79 0 2.46 4.16z" style="fill:maroon"/><path d="m6.79 0 298.99 311-2.16 2.08-2.16 2.08-299-311L6.79 0z" style="fill:#d00"/></g><text class="cls-5" transform="translate(24.13 282.2)">X</text><text class="cls-5" transform="translate(133.34 83.8)">X</text></svg>